{"title":"Jennifer.Lopez.Hold.It.Do.not.Drop.It.HQ","uid":6273729,"size":63469056,"categoryP":"video","categoryS":"music_videos","magnet":"?xt=urn:btih:9bc7c0c8280d242e3e60e4669aa1652ec5ccede7&amp;dn=Jennifer.Lopez.Hold.It.Do.not.Drop.It.HQ&amp;tr=udp%3A%2F%2Ftracker.openbittorrent.com%3A80&amp;tr=udp%3A%2F%2Fopen.demonii.com%3A1337&amp;tr=udp%3A%2F%2Ftracker.coppersurfer.tk%3A6969&amp;tr=udp%3A%2F%2Fexodus.desync.com%3A6969","seeders":0,"leechers":1,"uploader":"kkabukki","files":1,"time":1301171375,"description":"Jennifer.Lopez.Hold.It.Do.not.Drop.It.HQ\n\n\n\nGeneral\nComplete name : Jennifer Lopez - Hold It Don't Drop It.avi\nFormat : AVI\nFormat/Info : Audio Video Interleave\nFile size : 60.5 MiB\nDuration : 3mn 50s\nOverall bit rate : 2 201 Kbps\n\nVideo #0\nFormat : MPEG-4 Visual\nFormat profile : Simple@L3\nFormat settings, BVOP : Yes\nFormat settings, QPel : No\nFormat settings, GMC : No warppoints\nFormat settings, Matrix : Default (H.263)\nCodec ID : XVID\nCodec ID/Hint : XviD\nDuration : 3mn 50s\nBit rate : 1 997 Kbps\nWidth : 720 pixels\nHeight : 304 pixels\nDisplay aspect ratio : 2.35:1\nFrame rate : 25.000 fps\nResolution : 24 bits\nScan type : Progressive\nBits/(Pixel*Frame) : 0.365\nStream size : 54.9 MiB (91%)\n\nAudio #1\nFormat : MPEG Audio\nFormat version : Version 1\nFormat profile : Layer 3\nCodec ID : 55\nCodec ID/Hint : MP3\nDuration : 3mn 50s\nBit rate mode : Constant\nBit rate : 192 Kbps\nChannel(s) : 2 channels\nSampling rate : 44.1 KHz\nResolution : 16 bits\nStream size : 5.27 MiB (9%)\nAlignment : Aligned on interleaves\nInterleave, duration : 26 ms (0.65 video frame)\nWriting library : LAME3.97","torrent":{"xt":"urn:btih:9bc7c0c8280d242e3e60e4669aa1652ec5ccede7","amp;dn":"Jennifer.Lopez.Hold.It.Do.not.Drop.It.HQ","amp;tr":["udp%3A%2F%2Ftracker.openbittorrent.com%3A80","udp%3A%2F%2Fopen.demonii.com%3A1337","udp%3A%2F%2Ftracker.coppersurfer.tk%3A6969","udp%3A%2F%2Fexodus.desync.com%3A6969"],"infoHash":"9bc7c0c8280d242e3e60e4669aa1652ec5ccede7","infoHashBuffer":{"type":"Buffer","data":[155,199,192,200,40,13,36,46,62,96,228,102,154,161,101,46,197,204,237,231]},"announce":[],"urlList":[]}}